<svg xmlns="http://www.w3.org/2000/svg" viewBox="0 0 280 280" fill="none" shape-rendering="auto" aria-hidden="true"><!-- Generated by DiceBear (https://www.dicebear.com) --><metadata xmlns:rdf="http://www.w3.org/1999/02/22-rdf-syntax-ns#" xmlns:xsi="http://www.w3.org/2001/XMLSchema-instance" xmlns:dc="http://purl.org/dc/elements/1.1/" xmlns:dcterms="http://purl.org/dc/terms/"><rdf:RDF><rdf:Description><dc:title>Avataaars</dc:title><dc:creator>Pablo Stanley</dc:creator><dc:source xsi:type="dcterms:URI">https://avataaars.com/</dc:source><dcterms:license xsi:type="dcterms:URI">https://avataaars.com/</dcterms:license><dc:rights>Remix of “Avataaars” (https://avataaars.com/) by “Pablo Stanley”, licensed under “Free for personal and commercial use” (https://avataaars.com/)</dc:rights></rdf:Description></rdf:RDF></metadata><defs><g id="clothes-blazerAndShirt-00571238"><path d="M100.5 37.13c18.5 0 33.5-9.61 33.5-21.48q0-.52-.04-1.05A72 72 0 0 1 200 86.36v8.95H0v-8.95a72 72 0 0 1 67.05-71.83q-.05.55-.05 1.12c0 11.87 15 21.48 33.5 21.48" fill="#E6E6E6"/><path d="M100.5 44.07c21.89 0 39.63-12.05 39.63-26.92q0-.9-.08-1.79-3-.51-6.1-.76.06.52.05 1.05c0 11.87-15 21.48-33.5 21.48S67 27.52 67 15.65q0-.57.05-1.12-3.08.2-6.08.67-.1.97-.1 1.95c0 14.87 17.74 26.92 39.63 26.92" fill="black" fill-opacity=".16"/><path d="M68.78 14.43 69 13.3c-2.96.06-6 1-6 1l-.42.67A72 72 0 0 0 0 86.36v8.95h74s-10.7-51.56-5.24-80.8zM126 95.3s11-53 5-82c2.96.06 6 1 6 1l.42.67A72 72 0 0 1 200 86.36v8.95z" fill="#ffafb9"/><path fill-rule="evenodd" clip-rule="evenodd" d="M69 13.3c-6 29 5 82 5 82H58l-14-36 6-9-6-6 19-30s3.04-.94 6-1m62 0c6 29-5 82-5 82h16l14-36-6-9 6-6-19-30s-3.04-.94-6-1" fill="black" fill-opacity=".15"/><path d="m151.42 71.07.87-2.24 6.27-4.7a4 4 0 0 1 4.85.05l6.6 5.13z" fill="#E6E6E6"/></g><g id="mouth-smile-00571238"><path fill-rule="evenodd" clip-rule="evenodd" d="M27.12 9.13a19 19 0 0 0 37.77-.09c.08-.77-.77-2.04-1.85-2.04H29.1C28 7 27 8.18 27.12 9.13" fill="black" fill-opacity=".7"/><path d="M62 7H31a5 5 0 0 0 5 5h21a5 5 0 0 0 5-5" fill="white"/><path d="M58.7 21.14A11 11 0 0 0 46 19.2a10.95 10.95 0 0 0-12.7 1.94A19 19 0 0 0 46 26c4.88 0 9.33-1.84 12.7-4.86" fill="#FF4F6D"/></g><g id="nose-default-00571238"><path fill-rule="evenodd" clip-rule="evenodd" d="M0 0c0 4.42 5.37 8 12 8s12-3.58 12-8" fill="black" fill-opacity=".16"/></g><g id="eyes-default-00571238"><path d="M22 14a6 6 0 1 1-12 0 6 6 0 0 1 12 0m52 0a6 6 0 1 1-12 0 6 6 0 0 1 12 0" fill="black" fill-opacity=".6"/></g><g id="eyebrows-upDownNatural-00571238"><path fill-rule="evenodd" clip-rule="evenodd" d="m14.9 1.58.91-.4C21.06-.9 29-.03 33.86 2.3c.57.27.18 1.15-.4 1.1C18.54 2.27 8.5 11.56 5.08 17.86c-.1.18-.4.2-.48.03C2.3 12.56 9.05 3.9 14.9 1.58m64.23 10.49c5.76.77 14.75 5.8 14 11.6-.03.2-.32.26-.44.1-2.49-3.2-21.7-7.87-28.72-6.9-.64.1-1.06-.57-.62-.98 3.74-3.54 10.62-4.52 15.78-3.82" fill="black" fill-opacity=".6"/></g><g id="top-turban-00571238"><path d="M189.47 97.5q1.51-3.62 1.53-7.5c0-18.23-26.41-33-59-33-32.58 0-59 14.77-59 33q.02 3.88 1.53 7.5C80.6 82.89 104.03 72 132 72s51.4 10.89 57.47 25.5" fill="#EDECE3"/><path d="M48 94.32C47.93 133.5 77 141 77 141c-5.44-49.55 23.54-65.15 46.53-77.53 2.94-1.58 5.78-3.11 8.44-4.65a310 310 0 0 0 8.48 4.68C163.43 75.87 192.42 91.48 187 141c0 0 29.07-8.46 29-46.68C215.92 47.15 163.85 3 134 3q-1 0-2 .09-1-.1-2-.09c-29.93 0-81.92 44.15-82 91.32" fill="#ffafb9"/><path d="M48.01 95.9c.7 37.8 29 45.1 29 45.1s-29.05-7.07-29-43.97zm28.32 33.78c.15-37.86 26.18-51.05 47.2-61.71 11-5.58 20.64-10.47 24.47-17.83 4.13-7.25 5.39-13.94 4.65-19.67A39 39 0 0 1 148 44.54c-3.83 7.82-13.47 13-24.47 18.93-21.14 11.38-47.35 25.49-47.2 66.21" fill="black" fill-opacity=".16"/></g><clipPath id="clip-00571238"><rect width="280" height="280" rx="0" ry="0"/></clipPath></defs><g clip-path="url(#clip-00571238)"><rect width="280" height="280" fill="#f7f0df"/><path d="M140 36a56 56 0 0 0-56 56v6.17A12 12 0 0 0 74 110v14a12 12 0 0 0 10.3 11.88A56 56 0 0 0 116 180.6V199h-4a72 72 0 0 0-72 72v9h200v-9a72 72 0 0 0-72-72h-4v-18.38a56 56 0 0 0 31.7-44.73A12 12 0 0 0 206 124v-14a12 12 0 0 0-10-11.83V92a56 56 0 0 0-56-56" fill="#ffdbb4"/><path d="M116 180.61v8a56 56 0 0 0 24 5.39 56 56 0 0 0 24-5.39v-8a56 56 0 0 1-24 5.39 56 56 0 0 1-24-5.39" fill="black" fill-opacity=".1"/><use transform="translate(40 184.7)" href="#clothes-blazerAndShirt-00571238"/><use transform="translate(94 140)" href="#mouth-smile-00571238"/><use transform="translate(128 130)" href="#nose-default-00571238"/><use transform="translate(98 98)" href="#eyes-default-00571238"/><use transform="translate(91.86 82)" href="#eyebrows-upDownNatural-00571238"/><use transform="translate(8)" href="#top-turban-00571238"/></g></svg>